<svg xmlns="http://www.w3.org/2000/svg" viewBox="0 0 520 300" fill="none" stroke="#c9ccd2" stroke-width="1.5" stroke-linecap="round" stroke-linejoin="round">
<rect x="6" y="6" width="508" height="288" rx="10" stroke-opacity=".5"/>
<circle cx="60" cy="44" r="13"/><path d="M60 44l7-9"/><path d="M60 74V256"/><path d="M46 74h6M68 74h6" stroke-opacity=".5"/><path d="M46 94h6M68 94h6" stroke-opacity=".5"/><path d="M46 114h6M68 114h6" stroke-opacity=".5"/><path d="M46 134h6M68 134h6" stroke-opacity=".5"/><path d="M46 154h6M68 154h6" stroke-opacity=".5"/><path d="M46 174h6M68 174h6" stroke-opacity=".5"/><path d="M46 194h6M68 194h6" stroke-opacity=".5"/><path d="M46 214h6M68 214h6" stroke-opacity=".5"/><path d="M46 234h6M68 234h6" stroke-opacity=".5"/><path d="M46 254h6M68 254h6" stroke-opacity=".5"/><rect x="44" y="150" width="32" height="22" rx="4"/><path d="M50 161h20"/><path d="M46 274h28" stroke-opacity=".6"/><circle cx="140" cy="44" r="13"/><path d="M140 44l7-9"/><path d="M140 74V256"/><path d="M126 74h6M148 74h6" stroke-opacity=".5"/><path d="M126 94h6M148 94h6" stroke-opacity=".5"/><path d="M126 114h6M148 114h6" stroke-opacity=".5"/><path d="M126 134h6M148 134h6" stroke-opacity=".5"/><path d="M126 154h6M148 154h6" stroke-opacity=".5"/><path d="M126 174h6M148 174h6" stroke-opacity=".5"/><path d="M126 194h6M148 194h6" stroke-opacity=".5"/><path d="M126 214h6M148 214h6" stroke-opacity=".5"/><path d="M126 234h6M148 234h6" stroke-opacity=".5"/><path d="M126 254h6M148 254h6" stroke-opacity=".5"/><rect x="124" y="110" width="32" height="22" rx="4"/><path d="M130 121h20"/><path d="M126 274h28" stroke-opacity=".6"/><circle cx="220" cy="44" r="13"/><path d="M220 44l7-9"/><path d="M220 74V256"/><path d="M206 74h6M228 74h6" stroke-opacity=".5"/><path d="M206 94h6M228 94h6" stroke-opacity=".5"/><path d="M206 114h6M228 114h6" stroke-opacity=".5"/><path d="M206 134h6M228 134h6" stroke-opacity=".5"/><path d="M206 154h6M228 154h6" stroke-opacity=".5"/><path d="M206 174h6M228 174h6" stroke-opacity=".5"/><path d="M206 194h6M228 194h6" stroke-opacity=".5"/><path d="M206 214h6M228 214h6" stroke-opacity=".5"/><path d="M206 234h6M228 234h6" stroke-opacity=".5"/><path d="M206 254h6M228 254h6" stroke-opacity=".5"/><rect x="204" y="190" width="32" height="22" rx="4"/><path d="M210 201h20"/><path d="M206 274h28" stroke-opacity=".6"/><circle cx="300" cy="44" r="13"/><path d="M300 44l7-9"/><path d="M300 74V256"/><path d="M286 74h6M308 74h6" stroke-opacity=".5"/><path d="M286 94h6M308 94h6" stroke-opacity=".5"/><path d="M286 114h6M308 114h6" stroke-opacity=".5"/><path d="M286 134h6M308 134h6" stroke-opacity=".5"/><path d="M286 154h6M308 154h6" stroke-opacity=".5"/><path d="M286 174h6M308 174h6" stroke-opacity=".5"/><path d="M286 194h6M308 194h6" stroke-opacity=".5"/><path d="M286 214h6M308 214h6" stroke-opacity=".5"/><path d="M286 234h6M308 234h6" stroke-opacity=".5"/><path d="M286 254h6M308 254h6" stroke-opacity=".5"/><rect x="284" y="90" width="32" height="22" rx="4" stroke="#b18cf0"/><path d="M290 101h20" stroke="#b18cf0"/><path d="M286 274h28" stroke-opacity=".6"/><circle cx="380" cy="44" r="13"/><path d="M380 44l7-9"/><path d="M380 74V256"/><path d="M366 74h6M388 74h6" stroke-opacity=".5"/><path d="M366 94h6M388 94h6" stroke-opacity=".5"/><path d="M366 114h6M388 114h6" stroke-opacity=".5"/><path d="M366 134h6M388 134h6" stroke-opacity=".5"/><path d="M366 154h6M388 154h6" stroke-opacity=".5"/><path d="M366 174h6M388 174h6" stroke-opacity=".5"/><path d="M366 194h6M388 194h6" stroke-opacity=".5"/><path d="M366 214h6M388 214h6" stroke-opacity=".5"/><path d="M366 234h6M388 234h6" stroke-opacity=".5"/><path d="M366 254h6M388 254h6" stroke-opacity=".5"/><rect x="364" y="160" width="32" height="22" rx="4"/><path d="M370 171h20"/><path d="M366 274h28" stroke-opacity=".6"/><circle cx="460" cy="44" r="13"/><path d="M460 44l7-9"/><path d="M460 74V256"/><path d="M446 74h6M468 74h6" stroke-opacity=".5"/><path d="M446 94h6M468 94h6" stroke-opacity=".5"/><path d="M446 114h6M468 114h6" stroke-opacity=".5"/><path d="M446 134h6M468 134h6" stroke-opacity=".5"/><path d="M446 154h6M468 154h6" stroke-opacity=".5"/><path d="M446 174h6M468 174h6" stroke-opacity=".5"/><path d="M446 194h6M468 194h6" stroke-opacity=".5"/><path d="M446 214h6M468 214h6" stroke-opacity=".5"/><path d="M446 234h6M468 234h6" stroke-opacity=".5"/><path d="M446 254h6M468 254h6" stroke-opacity=".5"/><rect x="444" y="130" width="32" height="22" rx="4"/><path d="M450 141h20"/><path d="M446 274h28" stroke-opacity=".6"/>
</svg>
